<svg width="16" height="16" viewBox="0 0 16 16" fill="none" xmlns="http://www.w3.org/2000/svg">
<path d="M5.33337 1.1665C5.42261 1.1665 5.50037 1.24426 5.50037 1.3335V3.3335C5.50037 3.42273 5.42261 3.50049 5.33337 3.50049C5.24414 3.50049 5.16638 3.42273 5.16638 3.3335V1.3335C5.16638 1.24426 5.24414 1.1665 5.33337 1.1665Z" fill="#101840" stroke="#101840" stroke-width="0.666667"/>
<path d="M10.6666 1.1665C10.7559 1.1665 10.8336 1.24426 10.8336 1.3335V3.3335C10.8336 3.42273 10.7559 3.50049 10.6666 3.50049C10.5774 3.50049 10.4996 3.42273 10.4996 3.3335V1.3335C10.4996 1.24426 10.5774 1.1665 10.6666 1.1665Z" fill="#101840" stroke="#101840" stroke-width="0.666667"/>
<path d="M5.54199 8.69434C5.66101 8.64493 5.81441 8.67444 5.90234 8.76074C5.96487 8.82917 6 8.91948 6 9C5.99998 9.01092 5.99792 9.03066 5.99121 9.07812C5.99054 9.08216 5.98811 9.09117 5.98145 9.10449L5.97168 9.125L5.96387 9.14746C5.96111 9.15575 5.95487 9.16975 5.94238 9.18848L5.93848 9.19531L5.9375 9.19629C5.93616 9.19803 5.93359 9.20128 5.92871 9.20703C5.92253 9.2143 5.91761 9.21956 5.9082 9.23047C5.90584 9.23321 5.90311 9.23606 5.90039 9.23926C5.83268 9.29897 5.74553 9.33292 5.66699 9.33301C5.63099 9.33301 5.58771 9.32465 5.54199 9.30566L5.5332 9.30176L5.47754 9.27344C5.46212 9.26337 5.44594 9.25112 5.42773 9.23535C5.36621 9.16669 5.33304 9.08388 5.33301 9C5.33301 8.96393 5.34223 8.92087 5.36133 8.875C5.37805 8.83486 5.40161 8.79722 5.43262 8.76074C5.47069 8.72834 5.49974 8.71014 5.5332 8.69727V8.69824L5.54199 8.69434Z" fill="#101840" stroke="#101840" stroke-width="0.666667"/>
<path d="M7.8822 8.69141C7.99115 8.64299 8.14302 8.66962 8.23572 8.76074C8.29826 8.82917 8.33337 8.91948 8.33337 9C8.33336 9.01091 8.3313 9.03063 8.32458 9.07812C8.32391 9.08216 8.32148 9.09117 8.31482 9.10449L8.30505 9.125L8.29724 9.14746C8.29448 9.15575 8.28824 9.16975 8.27576 9.18848L8.27185 9.19531L8.27087 9.19629C8.26954 9.19803 8.26698 9.20127 8.26208 9.20703C8.25591 9.2143 8.25098 9.21956 8.24158 9.23047C8.23922 9.23321 8.23649 9.23606 8.23376 9.23926C8.16605 9.29898 8.07891 9.33292 8.00037 9.33301C7.96436 9.33301 7.92109 9.32466 7.87537 9.30566L7.86658 9.30176L7.81091 9.27441C7.79552 9.2644 7.78023 9.25104 7.76208 9.23535C7.70028 9.16659 7.6664 9.08409 7.66638 9C7.66638 8.96392 7.6756 8.92088 7.6947 8.875C7.71143 8.83485 7.73497 8.79722 7.76599 8.76074C7.80406 8.72835 7.83312 8.71014 7.86658 8.69727L7.8822 8.69141Z" fill="#101840" stroke="#101840" stroke-width="0.666667"/>
<path d="M10.3333 9.66658C10.2466 9.66658 10.16 9.64659 10.08 9.61326C9.99329 9.57992 9.92663 9.53324 9.85996 9.47324C9.83329 9.43991 9.80662 9.40658 9.77996 9.37325C9.75329 9.33325 9.73329 9.29325 9.71996 9.25325C9.69996 9.21325 9.68663 9.17326 9.67996 9.13326C9.67329 9.08659 9.66663 9.03992 9.66663 8.99992C9.66663 8.82658 9.73996 8.65325 9.85996 8.52659C9.92663 8.46659 9.99329 8.41991 10.08 8.38657C10.3266 8.27991 10.62 8.33992 10.8066 8.52659C10.9266 8.65325 11 8.82658 11 8.99992C11 9.03992 10.9933 9.08659 10.9866 9.13326C10.98 9.17326 10.9666 9.21325 10.9466 9.25325C10.9333 9.29325 10.9133 9.33325 10.8866 9.37325C10.8666 9.40658 10.8333 9.43991 10.8066 9.47324C10.68 9.59324 10.5066 9.66658 10.3333 9.66658Z" fill="#101840"/>
<path d="M5.66667 12.0003C5.58 12.0003 5.49333 11.9803 5.41333 11.947C5.33333 11.9136 5.26 11.8669 5.19333 11.8069C5.07333 11.6803 5 11.507 5 11.3336C5 11.247 5.02 11.1603 5.05333 11.0803C5.08667 10.9936 5.13333 10.9203 5.19333 10.8603C5.44 10.6136 5.89333 10.6136 6.14 10.8603C6.26 10.987 6.33333 11.1603 6.33333 11.3336C6.33333 11.507 6.26 11.6803 6.14 11.8069C6.01333 11.9269 5.84 12.0003 5.66667 12.0003Z" fill="#101840"/>
<path d="M8.00004 12.0003C7.82671 12.0003 7.65337 11.9269 7.52671 11.8069C7.40671 11.6803 7.33337 11.507 7.33337 11.3336C7.33337 11.247 7.35338 11.1603 7.38671 11.0803C7.42004 10.9936 7.46671 10.9203 7.52671 10.8603C7.77337 10.6136 8.22671 10.6136 8.47337 10.8603C8.53337 10.9203 8.58004 10.9936 8.61337 11.0803C8.64671 11.1603 8.66671 11.247 8.66671 11.3336C8.66671 11.507 8.59337 11.6803 8.47337 11.8069C8.34671 11.9269 8.17337 12.0003 8.00004 12.0003Z" fill="#101840"/>
<path d="M10.3333 11.9999C10.16 11.9999 9.98663 11.9266 9.85996 11.8066C9.79996 11.7466 9.75329 11.6733 9.71996 11.5866C9.68663 11.5066 9.66663 11.4199 9.66663 11.3333C9.66663 11.2466 9.68663 11.1599 9.71996 11.0799C9.75329 10.9933 9.79996 10.9199 9.85996 10.8599C10.0133 10.7066 10.2466 10.6333 10.46 10.6799C10.5066 10.6866 10.5466 10.6999 10.5866 10.7199C10.6266 10.7333 10.6666 10.7533 10.7066 10.78C10.74 10.8 10.7733 10.8333 10.8066 10.8599C10.9266 10.9866 11 11.1599 11 11.3333C11 11.5066 10.9266 11.6799 10.8066 11.8066C10.68 11.9266 10.5066 11.9999 10.3333 11.9999Z" fill="#101840"/>
<path d="M13.6667 6.56006H2.33337C2.06004 6.56006 1.83337 6.33339 1.83337 6.06006C1.83337 5.78673 2.06004 5.56006 2.33337 5.56006H13.6667C13.94 5.56006 14.1667 5.78673 14.1667 6.06006C14.1667 6.33339 13.94 6.56006 13.6667 6.56006Z" fill="#101840"/>
<path d="M10.6667 15.1668H5.33333C2.9 15.1668 1.5 13.7668 1.5 11.3335V5.66683C1.5 3.2335 2.9 1.8335 5.33333 1.8335H10.6667C13.1 1.8335 14.5 3.2335 14.5 5.66683V11.3335C14.5 13.7668 13.1 15.1668 10.6667 15.1668ZM5.33333 2.8335C3.42667 2.8335 2.5 3.76016 2.5 5.66683V11.3335C2.5 13.2402 3.42667 14.1668 5.33333 14.1668H10.6667C12.5733 14.1668 13.5 13.2402 13.5 11.3335V5.66683C13.5 3.76016 12.5733 2.8335 10.6667 2.8335H5.33333Z" fill="#101840"/>
</svg>
