<svg width="20" height="20" viewBox="0 0 20 20" fill="none" xmlns="http://www.w3.org/2000/svg">
<path d="M17.51 3.85L11.57 0.42C10.6 -0.14 9.40004 -0.14 8.42004 0.42L2.49004 3.85C1.52004 4.41 0.920044 5.45 0.920044 6.58V13.42C0.920044 14.54 1.52004 15.58 2.49004 16.15L8.43004 19.58C9.40004 20.14 10.6 20.14 11.58 19.58L17.52 16.15C18.49 15.59 19.09 14.55 19.09 13.42V6.58C19.08 5.45 18.48 4.42 17.51 3.85ZM9.25004 5.75C9.25004 5.34 9.59004 5 10 5C10.41 5 10.75 5.34 10.75 5.75V11C10.75 11.41 10.41 11.75 10 11.75C9.59004 11.75 9.25004 11.41 9.25004 11V5.75ZM10.92 14.63C10.87 14.75 10.8 14.86 10.71 14.96C10.52 15.15 10.27 15.25 10 15.25C9.87004 15.25 9.74004 15.22 9.62004 15.17C9.49004 15.12 9.39004 15.05 9.29004 14.96C9.20004 14.86 9.13004 14.75 9.07004 14.63C9.02004 14.51 9.00004 14.38 9.00004 14.25C9.00004 13.99 9.10004 13.73 9.29004 13.54C9.39004 13.45 9.49004 13.38 9.62004 13.33C9.99004 13.17 10.43 13.26 10.71 13.54C10.8 13.64 10.87 13.74 10.92 13.87C10.97 13.99 11 14.12 11 14.25C11 14.38 10.97 14.51 10.92 14.63Z" fill="#897AE3"/>
</svg>
