<svg width="74" height="74" viewBox="0 0 74 74" fill="none" xmlns="http://www.w3.org/2000/svg">
<circle cx="37" cy="37" r="37" fill="#897AE3"/>
<path d="M43.6666 49.3332H30.3333C25.4666 49.3332 22.6666 46.5332 22.6666 41.6665V32.3332C22.6666 27.4665 25.4666 24.6665 30.3333 24.6665H43.6666C48.5333 24.6665 51.3333 27.4665 51.3333 32.3332V41.6665C51.3333 46.5332 48.5333 49.3332 43.6666 49.3332ZM30.3333 26.6665C26.52 26.6665 24.6666 28.5198 24.6666 32.3332V41.6665C24.6666 45.4798 26.52 47.3332 30.3333 47.3332H43.6666C47.48 47.3332 49.3333 45.4798 49.3333 41.6665V32.3332C49.3333 28.5198 47.48 26.6665 43.6666 26.6665H30.3333Z" fill="white"/>
<path d="M36.9997 38.16C35.8797 38.16 34.7464 37.8133 33.8797 37.1066L29.7064 33.7733C29.2797 33.4266 29.1997 32.8 29.5464 32.3733C29.8931 31.9466 30.5198 31.8666 30.9464 32.2133L35.1197 35.5466C36.1331 36.36 37.8531 36.36 38.8664 35.5466L43.0397 32.2133C43.4664 31.8666 44.1064 31.9333 44.4397 32.3733C44.7864 32.8 44.7198 33.44 44.2798 33.7733L40.1064 37.1066C39.2531 37.8133 38.1197 38.16 36.9997 38.16Z" fill="white"/>
</svg>
