<svg width="25" height="25" viewBox="0 0 25 25" fill="none" xmlns="http://www.w3.org/2000/svg">
<path d="M22.2584 16.4185C22.2584 20.0585 20.0884 22.2285 16.4484 22.2285H15.2584C14.7084 22.2285 14.2584 21.7785 14.2584 21.2285V15.4585C14.2584 15.1885 14.4784 14.9585 14.7484 14.9585L16.5084 14.9285C16.6484 14.9185 16.7684 14.8185 16.7984 14.6785L17.1484 12.7685C17.1784 12.5885 17.0384 12.4185 16.8484 12.4185L14.7184 12.4485C14.4384 12.4485 14.2184 12.2285 14.2084 11.9585L14.1684 9.50851C14.1684 9.34851 14.2984 9.20853 14.4684 9.20853L16.8684 9.16852C17.0384 9.16852 17.1684 9.03853 17.1684 8.86853L17.1284 6.46851C17.1284 6.29851 16.9984 6.16852 16.8284 6.16852L14.1284 6.20853C12.4684 6.23853 11.1484 7.59851 11.1784 9.25851L11.2284 12.0085C11.2384 12.2885 11.0184 12.5085 10.7384 12.5185L9.53842 12.5385C9.36842 12.5385 9.23843 12.6685 9.23843 12.8385L9.26843 14.7385C9.26843 14.9085 9.39842 15.0385 9.56842 15.0385L10.7684 15.0185C11.0484 15.0185 11.2684 15.2385 11.2784 15.5085L11.3684 21.2085C11.3784 21.7685 10.9284 22.2285 10.3684 22.2285H8.06842C4.42842 22.2285 2.25842 20.0585 2.25842 16.4085V8.03851C2.25842 4.39851 4.42842 2.22852 8.06842 2.22852H16.4484C20.0884 2.22852 22.2584 4.39851 22.2584 8.03851V16.4185Z" fill="white"/>
</svg>
