<svg width="54" height="54" viewBox="0 0 54 54" fill="none" xmlns="http://www.w3.org/2000/svg">
<circle cx="27" cy="27" r="27" fill="#897AE3"/>
<path d="M27 41.3333C19.0933 41.3333 12.6666 34.9066 12.6666 27C12.6666 19.0933 19.0933 12.6666 27 12.6666C34.9066 12.6666 41.3333 19.0933 41.3333 27C41.3333 34.9066 34.9066 41.3333 27 41.3333ZM27 14.6666C20.2 14.6666 14.6666 20.2 14.6666 27C14.6666 33.8 20.2 39.3333 27 39.3333C33.8 39.3333 39.3333 33.8 39.3333 27C39.3333 20.2 33.8 14.6666 27 14.6666Z" fill="white"/>
<path d="M22.9999 40H21.6666C21.1199 40 20.6666 39.5467 20.6666 39C20.6666 38.4533 21.0933 38.0133 21.6399 38C19.5466 30.8533 19.5466 23.1467 21.6399 16C21.0933 15.9867 20.6666 15.5467 20.6666 15C20.6666 14.4533 21.1199 14 21.6666 14H22.9999C23.3199 14 23.6266 14.16 23.8133 14.4133C23.9999 14.68 24.0533 15.0133 23.9466 15.32C21.4399 22.8533 21.4399 31.1467 23.9466 38.6933C24.0533 39 23.9999 39.3333 23.8133 39.6C23.6266 39.84 23.3199 40 22.9999 40Z" fill="white"/>
<path d="M31.0001 40C30.8934 40 30.7867 39.9866 30.6801 39.9466C30.1601 39.7733 29.8667 39.2 30.0534 38.68C32.5601 31.1466 32.5601 22.8533 30.0534 15.3066C29.8801 14.7866 30.1601 14.2133 30.6801 14.04C31.2134 13.8666 31.7734 14.1466 31.9467 14.6666C34.6001 22.6133 34.6001 31.36 31.9467 39.2933C31.8134 39.7333 31.4134 40 31.0001 40Z" fill="white"/>
<path d="M27 33.9334C23.28 33.9334 19.5733 33.4134 16 32.3601C15.9867 32.8934 15.5467 33.3334 15 33.3334C14.4533 33.3334 14 32.8801 14 32.3334V31.0001C14 30.6801 14.16 30.3734 14.4133 30.1867C14.68 30.0001 15.0133 29.9467 15.32 30.0534C22.8533 32.5601 31.16 32.5601 38.6933 30.0534C39 29.9467 39.3333 30.0001 39.6 30.1867C39.8667 30.3734 40.0133 30.6801 40.0133 31.0001V32.3334C40.0133 32.8801 39.56 33.3334 39.0133 33.3334C38.4667 33.3334 38.0267 32.9067 38.0133 32.3601C34.4267 33.4134 30.72 33.9334 27 33.9334Z" fill="white"/>
<path d="M39 24.0001C38.8934 24.0001 38.7867 23.9868 38.68 23.9468C31.1467 21.4401 22.84 21.4401 15.3067 23.9468C14.7734 24.1201 14.2134 23.8401 14.04 23.3201C13.88 22.7868 14.16 22.2268 14.68 22.0535C22.6267 19.4001 31.3734 19.4001 39.3067 22.0535C39.8267 22.2268 40.12 22.8001 39.9334 23.3201C39.8134 23.7335 39.4134 24.0001 39 24.0001Z" fill="white"/>
</svg>
