<svg width="26" height="24" viewBox="0 0 26 24" fill="none" xmlns="http://www.w3.org/2000/svg">
<path d="M17.7547 3.64812C18.8825 3.65149 19.9632 4.10102 20.7607 4.89854C21.5583 5.69605 22.0078 6.77675 22.0112 7.9046V16.4167C22.0078 17.5445 21.5583 18.6252 20.7607 19.4227C19.9632 20.2202 18.8825 20.6698 17.7547 20.6731H9.24262C8.11476 20.6698 7.03407 20.2202 6.23655 19.4227C5.43903 18.6252 4.9895 17.5445 4.98613 16.4167V7.9046C4.9895 6.77675 5.43903 5.69605 6.23655 4.89854C7.03407 4.10102 8.11476 3.65149 9.24262 3.64812H17.7547ZM17.7547 1.9458H9.24262C5.96521 1.9458 3.28381 4.62719 3.28381 7.9046V16.4167C3.28381 19.6941 5.96521 22.3755 9.24262 22.3755H17.7547C21.0321 22.3755 23.7135 19.6941 23.7135 16.4167V7.9046C23.7135 4.62719 21.0321 1.9458 17.7547 1.9458Z" fill="white"/>
<path d="M19.029 7.90674C18.7764 7.90674 18.5296 7.83185 18.3196 7.69155C18.1096 7.55124 17.946 7.35183 17.8493 7.11851C17.7527 6.8852 17.7274 6.62847 17.7767 6.38078C17.8259 6.13309 17.9475 5.90558 18.1261 5.72701C18.3047 5.54844 18.5322 5.42683 18.7799 5.37756C19.0276 5.32829 19.2843 5.35358 19.5176 5.45022C19.7509 5.54686 19.9503 5.71052 20.0906 5.9205C20.2309 6.13048 20.3058 6.37734 20.3058 6.62988C20.3062 6.79766 20.2734 6.96386 20.2094 7.11894C20.1453 7.27402 20.0513 7.41492 19.9327 7.53356C19.814 7.6522 19.6731 7.74624 19.518 7.81028C19.363 7.87432 19.1968 7.9071 19.029 7.90674ZM13.4961 8.75767C14.1696 8.75767 14.8279 8.95737 15.3879 9.33153C15.9478 9.70569 16.3843 10.2375 16.642 10.8597C16.8997 11.4819 16.9671 12.1665 16.8358 12.8271C16.7044 13.4876 16.3801 14.0943 15.9039 14.5705C15.4276 15.0467 14.8209 15.371 14.1604 15.5024C13.4999 15.6338 12.8152 15.5664 12.193 15.3087C11.5708 15.0509 11.039 14.6145 10.6649 14.0545C10.2907 13.4946 10.091 12.8362 10.091 12.1628C10.092 11.26 10.451 10.3944 11.0894 9.75606C11.7278 9.11769 12.5933 8.75863 13.4961 8.75767ZM13.4961 7.05535C12.4859 7.05535 11.4985 7.35489 10.6586 7.9161C9.81865 8.47731 9.16402 9.27498 8.77745 10.2082C8.39088 11.1415 8.28974 12.1684 8.48681 13.1592C8.68388 14.1499 9.17032 15.06 9.8846 15.7743C10.5989 16.4885 11.5089 16.975 12.4997 17.172C13.4904 17.3691 14.5174 17.268 15.4506 16.8814C16.3839 16.4948 17.1815 15.8402 17.7428 15.0003C18.304 14.1604 18.6035 13.1729 18.6035 12.1628C18.6035 10.8082 18.0654 9.5091 17.1076 8.55128C16.1498 7.59345 14.8507 7.05535 13.4961 7.05535Z" fill="white"/>
</svg>
