<svg width="74" height="74" viewBox="0 0 74 74" fill="none" xmlns="http://www.w3.org/2000/svg">
<circle cx="37" cy="37" r="37" fill="#897AE3"/>
<path d="M37 39.8931C34.16 39.8931 31.84 37.5864 31.84 34.7331C31.84 31.8798 34.16 29.5864 37 29.5864C39.84 29.5864 42.16 31.8931 42.16 34.7464C42.16 37.5998 39.84 39.8931 37 39.8931ZM37 31.5864C35.2666 31.5864 33.84 32.9998 33.84 34.7464C33.84 36.4931 35.2533 37.9064 37 37.9064C38.7466 37.9064 40.16 36.4931 40.16 34.7464C40.16 32.9998 38.7333 31.5864 37 31.5864Z" fill="white"/>
<path d="M37.0001 51.3465C35.0268 51.3465 33.0401 50.5998 31.4934 49.1198C27.5601 45.3332 23.2134 39.2932 24.8534 32.1065C26.3334 25.5865 32.0268 22.6665 37.0001 22.6665C37.0001 22.6665 37.0001 22.6665 37.0134 22.6665C41.9868 22.6665 47.6801 25.5865 49.1601 32.1198C50.7868 39.3065 46.4401 45.3332 42.5068 49.1198C40.9601 50.5998 38.9734 51.3465 37.0001 51.3465ZM37.0001 24.6665C33.1201 24.6665 28.1334 26.7332 26.8134 32.5465C25.3734 38.8265 29.3201 44.2398 32.8934 47.6665C35.2001 49.8932 38.8134 49.8932 41.1201 47.6665C44.6801 44.2398 48.6268 38.8265 47.2134 32.5465C45.8801 26.7332 40.8801 24.6665 37.0001 24.6665Z" fill="white"/>
</svg>
