<svg width="74" height="74" viewBox="0 0 74 74" fill="none" xmlns="http://www.w3.org/2000/svg">
<circle cx="37" cy="37" r="37" fill="#897AE3"/>
<path d="M44.2666 52.5495C42.76 52.5495 41.1733 52.1895 39.5333 51.4961C37.9333 50.8161 36.32 49.8828 34.7466 48.7495C33.1866 47.6028 31.68 46.3228 30.2533 44.9228C28.84 43.4961 27.56 41.9895 26.4266 40.4428C25.28 38.8428 24.36 37.2428 23.7066 35.6961C23.0133 34.0428 22.6666 32.4428 22.6666 30.9361C22.6666 29.8961 22.8533 28.9095 23.2133 27.9895C23.5866 27.0428 24.1866 26.1628 25 25.4028C26.0266 24.3895 27.2 23.8828 28.4533 23.8828C28.9733 23.8828 29.5066 24.0028 29.96 24.2161C30.48 24.4561 30.92 24.8161 31.24 25.2961L34.3333 29.6561C34.6133 30.0428 34.8266 30.4161 34.9733 30.7895C35.1466 31.1895 35.24 31.5895 35.24 31.9761C35.24 32.4828 35.0933 32.9761 34.8133 33.4428C34.6133 33.8028 34.3066 34.1895 33.92 34.5761L33.0133 35.5228C33.0266 35.5628 33.04 35.5895 33.0533 35.6161C33.2133 35.8961 33.5333 36.3761 34.1466 37.0961C34.8 37.8428 35.4133 38.5228 36.0266 39.1495C36.8133 39.9228 37.4666 40.5361 38.08 41.0428C38.84 41.6828 39.3333 42.0028 39.6266 42.1495L39.6 42.2161L40.5733 41.2561C40.9866 40.8428 41.3866 40.5361 41.7733 40.3361C42.5066 39.8828 43.44 39.8028 44.3733 40.1895C44.72 40.3361 45.0933 40.5361 45.4933 40.8161L49.92 43.9628C50.4133 44.2961 50.7733 44.7228 50.9866 45.2295C51.1866 45.7361 51.28 46.2028 51.28 46.6695C51.28 47.3095 51.1333 47.9495 50.8533 48.5495C50.5733 49.1495 50.2266 49.6695 49.7866 50.1495C49.0266 50.9895 48.2 51.5895 47.24 51.9761C46.32 52.3495 45.32 52.5495 44.2666 52.5495ZM28.4533 25.8828C27.72 25.8828 27.04 26.2028 26.3866 26.8428C25.7733 27.4161 25.3466 28.0428 25.08 28.7228C24.8 29.4161 24.6666 30.1495 24.6666 30.9361C24.6666 32.1761 24.96 33.5228 25.5466 34.9095C26.1466 36.3228 26.9866 37.7895 28.0533 39.2561C29.12 40.7228 30.3333 42.1495 31.6666 43.4961C33 44.8161 34.44 46.0428 35.92 47.1228C37.36 48.1761 38.84 49.0295 40.3066 49.6428C42.5866 50.6161 44.72 50.8428 46.48 50.1095C47.16 49.8295 47.76 49.4028 48.3066 48.7895C48.6133 48.4561 48.8533 48.0961 49.0533 47.6695C49.2133 47.3361 49.2933 46.9895 49.2933 46.6428C49.2933 46.4295 49.2533 46.2161 49.1466 45.9761C49.1066 45.8961 49.0266 45.7495 48.7733 45.5761L44.3466 42.4295C44.08 42.2428 43.84 42.1095 43.6133 42.0161C43.32 41.8961 43.2 41.7761 42.7466 42.0561C42.48 42.1895 42.24 42.3895 41.9733 42.6561L40.96 43.6561C40.44 44.1628 39.64 44.2828 39.0266 44.0561L38.6666 43.8961C38.12 43.6028 37.48 43.1495 36.7733 42.5495C36.1333 42.0028 35.44 41.3628 34.6 40.5361C33.9466 39.8695 33.2933 39.1628 32.6133 38.3761C31.9866 37.6428 31.5333 37.0161 31.2533 36.4961L31.0933 36.0961C31.0133 35.7895 30.9866 35.6161 30.9866 35.4295C30.9866 34.9495 31.16 34.5228 31.4933 34.1895L32.4933 33.1495C32.76 32.8828 32.96 32.6295 33.0933 32.4028C33.2 32.2295 33.24 32.0828 33.24 31.9495C33.24 31.8428 33.2 31.6828 33.1333 31.5228C33.04 31.3095 32.8933 31.0695 32.7066 30.8161L29.6133 26.4428C29.48 26.2561 29.32 26.1228 29.12 26.0295C28.9066 25.9361 28.68 25.8828 28.4533 25.8828ZM39.6 42.2295L39.3866 43.1361L39.7466 42.2028C39.68 42.1895 39.6266 42.2028 39.6 42.2295Z" fill="white"/>
<path d="M47.6666 34.9498C47.1199 34.9498 46.6666 34.4965 46.6666 33.9498V28.5498H41.2666C40.7199 28.5498 40.2666 28.0965 40.2666 27.5498C40.2666 27.0031 40.7199 26.5498 41.2666 26.5498H47.6666C48.2133 26.5498 48.6666 27.0031 48.6666 27.5498V33.9498C48.6666 34.4965 48.2133 34.9498 47.6666 34.9498Z" fill="white"/>
</svg>
