<svg width="25" height="24" viewBox="0 0 25 24" fill="none" xmlns="http://www.w3.org/2000/svg">
<path d="M12.2904 1.854C6.5962 1.854 1.97913 6.17102 1.97913 11.4952C1.97913 15.442 4.52013 18.8337 8.1521 20.3272C8.12448 19.6558 8.1475 18.8466 8.33163 18.1149C8.52957 17.3315 9.65737 12.8596 9.65737 12.8596C9.65737 12.8596 9.32593 12.2441 9.32593 11.3359C9.32593 9.90697 10.2098 8.83956 11.3145 8.83956C12.2536 8.83956 12.7047 9.49808 12.7047 10.2857C12.7047 11.1681 12.1017 12.4851 11.7933 13.7075C11.5355 14.7319 12.3411 15.5626 13.4228 15.5626C15.3746 15.5626 16.6911 13.2168 16.6911 10.4364C16.6911 8.32306 15.1675 6.74346 12.4009 6.74346C9.2753 6.74346 7.32351 8.92564 7.32351 11.3618C7.32351 12.2011 7.5905 12.795 8.0048 13.2513C8.19353 13.4622 8.22115 13.5482 8.1521 13.7893C8.10146 13.9657 7.99099 14.3918 7.94035 14.564C7.8713 14.8093 7.65955 14.8954 7.42478 14.805C5.98396 14.2541 5.31189 12.7821 5.31189 11.1207C5.31189 8.38332 7.78384 5.09929 12.6817 5.09929C16.6175 5.09929 19.2091 7.76353 19.2091 10.6215C19.2091 14.4048 16.9581 17.2282 13.6438 17.2282C12.5298 17.2282 11.4849 16.6644 11.1258 16.0274C11.1258 16.0274 10.5274 18.2483 10.3985 18.6787C10.1821 19.4233 9.75403 20.1636 9.36276 20.7447C10.3119 21.0065 11.2962 21.1398 12.2858 21.1407C17.9801 21.1407 22.5971 16.8237 22.5971 11.4995C22.5971 6.17532 17.9847 1.854 12.2904 1.854Z" fill="white"/>
</svg>
