<svg width="33" height="33" viewBox="0 0 33 33" fill="none" xmlns="http://www.w3.org/2000/svg">
<path d="M3.19165 3.22632H5.51166C6.95166 3.22632 8.08499 4.46632 7.96499 5.89299L6.85832 19.173C6.67165 21.3463 8.39164 23.213 10.5783 23.213H24.7783C26.6983 23.213 28.3783 21.6397 28.525 19.733L29.245 9.73299C29.405 7.51966 27.725 5.71965 25.4983 5.71965H8.28499" stroke="#897AE3" stroke-width="2" stroke-miterlimit="10" stroke-linecap="round" stroke-linejoin="round"/>
<path d="M22.1917 29.8929C23.1122 29.8929 23.8584 29.1467 23.8584 28.2262C23.8584 27.3058 23.1122 26.5596 22.1917 26.5596C21.2712 26.5596 20.525 27.3058 20.525 28.2262C20.525 29.1467 21.2712 29.8929 22.1917 29.8929Z" stroke="#897AE3" stroke-width="2" stroke-miterlimit="10" stroke-linecap="round" stroke-linejoin="round"/>
<path d="M11.5251 29.8929C12.4455 29.8929 13.1917 29.1467 13.1917 28.2262C13.1917 27.3058 12.4455 26.5596 11.5251 26.5596C10.6046 26.5596 9.8584 27.3058 9.8584 28.2262C9.8584 29.1467 10.6046 29.8929 11.5251 29.8929Z" stroke="#897AE3" stroke-width="2" stroke-miterlimit="10" stroke-linecap="round" stroke-linejoin="round"/>
<path d="M12.525 11.2263H28.525" stroke="#897AE3" stroke-width="2" stroke-miterlimit="10" stroke-linecap="round" stroke-linejoin="round"/>
</svg>
