<svg width="64" height="64" viewBox="0 0 64 64" fill="none" xmlns="http://www.w3.org/2000/svg">
<path d="M46.4485 58.1817C38.6909 56.7272 38.303 52.5575 38.303 52.3635C37.8182 46.5453 39.5636 27.6363 39.8545 26.3757C40.2424 24.9211 41.0182 21.915 38.5939 19.1029C37.7212 18.1332 38.4 13.7696 29.1879 1.35747C28.897 0.969593 28.3152 0.872623 27.9273 1.16353L15.6121 9.50292C15.2242 9.79383 15.1273 10.2787 15.3212 10.6666C18.1333 16.8726 26.4727 24.5332 29.0909 26.7635C24.7273 32.2908 28.1212 41.7938 28.2182 42.1817C31.8061 50.6181 28.9939 56.1453 28.897 56.2423V56.3393C27.3455 60.315 29.6727 62.2544 32.7758 61.6726C37.2364 60.315 41.3091 63.0302 45.5758 63.0302C50.1333 63.0302 49.1636 58.6666 46.4485 58.1817ZM37.2364 20.3635C39.4667 22.8847 38.1091 25.6969 37.9151 26.7635C37.7212 28.315 37.3333 32.8726 36.9455 37.915H34.7151C35.103 36.2666 35.297 33.7453 35.297 32.0969C35.297 31.9999 35.297 31.9029 35.297 31.9029C36.6545 31.515 37.4303 30.3514 37.4303 28.9938C37.4303 27.6363 36.5576 26.2787 35.0061 25.9878C35.0061 25.8908 35.103 25.7938 35.103 25.6969C35.2 24.2423 34.0364 21.4302 33.4545 20.0726C34.6182 19.2969 35.5879 18.715 36.3636 18.2302C36.4606 19.006 36.5576 19.5878 37.2364 20.3635ZM34.4242 30.0605C33.4545 30.0605 33.3576 29.0908 33.3576 28.8969C33.3576 28.2181 33.7455 27.7332 34.4242 27.7332C35.4909 27.7332 35.4909 28.7029 35.4909 28.8969C35.4909 29.4787 35.103 30.0605 34.4242 30.0605ZM23.9515 19.2969C21.4303 16.5817 18.8121 13.4787 17.3576 10.6666L28.3152 3.1999C29.3818 4.65444 31.903 8.24232 33.9394 12.2181C32 12.9938 27.7333 15.0302 23.9515 19.2969ZM27.4424 22.7878C26.7636 22.109 26.0848 21.4302 25.3091 20.6544C28.897 16.5817 33.0667 14.6423 34.7151 13.9635C35.103 14.7393 35.3939 15.515 35.6848 16.2908C34.0364 17.1635 29.9636 19.5878 27.4424 22.7878ZM31.0303 27.3453C31.2242 27.1514 31.3212 26.8605 31.3212 26.6666C31.3212 26.3757 31.2242 26.1817 31.0303 25.9878C31.0303 25.9878 30.1576 25.212 28.897 24.0484C29.7697 22.9817 30.8364 21.915 31.903 21.0423C32.5818 22.6908 33.2606 24.6302 33.2606 25.406C33.2606 25.5999 33.3576 25.7938 33.4545 25.9878C32.1939 26.4726 31.6121 27.6363 31.6121 28.7999C31.6121 30.0605 32.2909 31.3211 33.6485 31.709C33.6485 31.806 33.6485 31.806 33.6485 31.9029C33.5515 34.2302 33.2606 36.9453 32.9697 37.8181H29.0909C28.5091 34.6181 28.3152 30.0605 31.0303 27.3453ZM29.4788 39.7575H36.8485C36.7515 40.5332 36.7515 41.309 36.6545 42.0847H30.1576C29.8667 41.309 29.6727 40.5332 29.4788 39.7575ZM46.8364 60.8969C46.8364 60.8969 46.4485 61.1878 45.5758 61.1878C42.1818 61.1878 39.9515 59.5393 35.4909 59.5393C33.1636 59.5393 32.5818 60.0241 31.8061 60.0241C30.3515 60.0241 29.7697 59.4423 30.5455 57.212C30.8364 56.5332 33.1636 51.5878 30.7394 44.0241H36.3636C36.1697 47.4181 36.0727 50.6181 36.2667 52.6544C36.2667 52.8484 36.5576 58.4726 45.9636 60.2181C46.3515 60.315 46.6424 60.6059 46.7394 60.8969C46.8364 60.8969 46.8364 60.8969 46.8364 60.8969Z" fill="#897AE3"/>
<path d="M28.3152 20.4606C28.3152 21.0424 27.8303 21.5273 27.2485 21.5273C26.6667 21.5273 26.1818 21.0424 26.1818 20.4606C26.1818 19.8788 26.6667 19.3939 27.2485 19.3939C27.8303 19.3939 28.3152 19.8788 28.3152 20.4606ZM34.9091 15.903C34.9091 16.4848 34.4242 16.9697 33.8424 16.9697C32.9697 16.9697 32.4849 15.903 33.0667 15.2242C33.7455 14.4485 34.9091 14.9333 34.9091 15.903ZM36.3636 40.9212C36.3636 41.503 35.8788 41.9879 35.3939 41.9879C34.8121 41.9879 34.3273 41.503 34.3273 40.9212C34.3273 40.2424 34.8121 39.8545 35.3939 39.8545C35.8788 39.8545 36.3636 40.3394 36.3636 40.9212ZM32.3879 40.9212C32.3879 41.503 31.903 41.9879 31.4182 41.9879C30.8364 41.9879 30.3515 41.503 30.3515 40.9212C30.3515 40.2424 30.8364 39.8545 31.4182 39.8545C32 39.8545 32.3879 40.3394 32.3879 40.9212Z" fill="#897AE3"/>
</svg>
