<svg width="51" height="50" viewBox="0 0 51 50" fill="none" xmlns="http://www.w3.org/2000/svg">
<path d="M39.9001 9H41.9V11C41.9 11.2652 42.0054 11.5196 42.1929 11.7071C42.3805 11.8946 42.6348 12 42.9 12H46.8999C47.1651 12 47.4195 11.8946 47.607 11.7071C47.7945 11.5196 47.8999 11.2652 47.8999 11V9H49.8999C50.1651 9 50.4195 8.89464 50.607 8.70711C50.7945 8.51957 50.8999 8.26522 50.8999 8V4C50.8999 3.73478 50.7945 3.48043 50.607 3.29289C50.4195 3.10536 50.1651 3 49.8999 3H47.8999V1C47.8999 0.734784 47.7945 0.48043 47.607 0.292893C47.4195 0.105357 47.1651 0 46.8999 0H42.9C42.6348 0 42.3805 0.105357 42.1929 0.292893C42.0054 0.48043 41.9 0.734784 41.9 1V3H39.9001C39.6349 3 39.3805 3.10536 39.193 3.29289C39.0055 3.48043 38.9001 3.73478 38.9001 4V8C38.9001 8.26522 39.0055 8.51957 39.193 8.70711C39.3805 8.89464 39.6349 9 39.9001 9ZM40.9 5H42.9C43.1652 4.99998 43.4196 4.89462 43.6071 4.70708C43.7946 4.51955 43.9 4.2652 43.9 4V2H45.9V4C45.9 4.26521 46.0053 4.51955 46.1928 4.70709C46.3804 4.89462 46.6347 4.99998 46.8999 5H48.8999V7H46.8999C46.6347 7.00002 46.3804 7.10538 46.1928 7.29291C46.0053 7.48045 45.9 7.73479 45.9 8V10H43.9V8C43.9 7.7348 43.7946 7.48045 43.6071 7.29292C43.4196 7.10538 43.1652 7.00002 42.9 7H40.9V5ZM14.9006 26C12.9228 26 10.9893 26.5864 9.34482 27.6852C7.70031 28.784 6.41856 30.3458 5.66165 32.173C4.90475 34.0003 4.70669 36.011 5.09252 37.9508C5.47835 39.8906 6.43075 41.6725 7.82926 43.071C9.22778 44.4695 11.0096 45.422 12.9494 45.8078C14.8892 46.1937 16.8999 45.9957 18.7272 45.2388C20.5545 44.4819 22.1163 43.2002 23.2151 41.5557C24.3139 39.9112 24.9004 37.9778 24.9004 36C24.8975 33.3488 23.843 30.8069 21.9683 28.9322C20.0936 27.0575 17.5518 26.003 14.9006 26ZM14.9006 44C13.3183 44 11.7716 43.5308 10.456 42.6518C9.14037 41.7728 8.11497 40.5234 7.50945 39.0616C6.90393 37.5997 6.74549 35.9912 7.05416 34.4394C7.36283 32.8875 8.12474 31.462 9.24356 30.3432C10.3624 29.2244 11.7878 28.4624 13.3397 28.1537C14.8915 27.845 16.5001 28.0035 17.9619 28.609C19.4237 29.2144 20.6731 30.2398 21.5522 31.5554C22.4313 32.871 22.9005 34.4177 22.9005 36C22.8981 38.121 22.0544 40.1544 20.5547 41.6542C19.055 43.1539 17.0215 43.9976 14.9006 44Z" fill="#897AE3"/>
<path d="M14.9006 32C14.1094 32 13.3361 32.2346 12.6783 32.6741C12.0205 33.1136 11.5078 33.7383 11.205 34.4692C10.9023 35.2001 10.823 36.0044 10.9774 36.7803C11.1317 37.5563 11.5127 38.269 12.0721 38.8284C12.6315 39.3878 13.3442 39.7688 14.1201 39.9231C14.8961 40.0775 15.7003 39.9983 16.4312 39.6955C17.1621 39.3928 17.7869 38.8801 18.2264 38.2223C18.6659 37.5645 18.9005 36.7911 18.9005 36C18.8993 34.9395 18.4775 33.9228 17.7276 33.1729C16.9778 32.423 15.9611 32.0012 14.9006 32ZM12.9006 36C12.9006 35.6044 13.0179 35.2178 13.2377 34.8889C13.4575 34.56 13.7698 34.3036 14.1353 34.1522C14.5008 34.0009 14.9029 33.9613 15.2909 34.0384C15.6788 34.1156 16.0352 34.3061 16.3149 34.5858C16.5946 34.8655 16.7851 35.2219 16.8622 35.6099C16.9394 35.9978 16.8998 36.4 16.7484 36.7654C16.597 37.1309 16.3406 37.4432 16.0117 37.663C15.6828 37.8827 15.2961 38 14.9006 38C14.3703 37.9995 13.8619 37.7886 13.487 37.4136C13.112 37.0386 12.9012 36.5303 12.9006 36ZM33.9002 44C33.7024 44 33.5091 44.0586 33.3446 44.1685C33.1802 44.2784 33.052 44.4346 32.9763 44.6173C32.9006 44.8 32.8808 45.0011 32.9194 45.1951C32.9579 45.389 33.0532 45.5672 33.193 45.7071C33.3329 45.8469 33.5111 45.9422 33.705 45.9808C33.899 46.0194 34.1001 45.9996 34.2828 45.9239C34.4656 45.8482 34.6217 45.72 34.7316 45.5556C34.8415 45.3911 34.9002 45.1978 34.9002 45C34.9002 44.7348 34.7948 44.4805 34.6073 44.2929C34.4198 44.1054 34.1654 44 33.9002 44Z" fill="#897AE3"/>
<path d="M50.396 35.3369C50.1776 35.009 49.8967 34.7273 49.5694 34.508C49.2421 34.2887 48.8748 34.136 48.4884 34.0588C48.1021 33.9815 47.7043 33.9811 47.3178 34.0577C46.9313 34.1342 46.5637 34.2862 46.236 34.5049L40.253 38.4931L37.9002 29.8658V27C37.899 25.9395 37.4772 24.9228 36.7273 24.1729C35.9774 23.4231 34.9608 23.0012 33.9003 23H32.9003V16C32.8994 15.2046 32.5831 14.4421 32.0207 13.8796C31.4583 13.3172 30.6957 13.0009 29.9003 13H14.1585L11.8314 2.35889C11.6823 1.69184 11.3112 1.09515 10.7788 0.666517C10.2464 0.237887 9.58425 0.0027176 8.90076 -0.000488281H3.90088C3.10523 -0.000488281 2.34217 0.315582 1.77956 0.878191C1.21695 1.4408 0.900879 2.20386 0.900879 2.99951C0.900879 3.79516 1.21695 4.55822 1.77956 5.12083C2.34217 5.68344 3.10523 5.99951 3.90088 5.99951H6.48627L10.17 22.8403C7.75898 23.7078 5.63241 25.2206 4.02225 27.2139C2.41208 29.2072 1.38015 31.6043 1.03898 34.1439C0.697809 36.6834 1.06051 39.2679 2.08752 41.6154C3.11454 43.963 4.76643 45.9835 6.86305 47.4565C8.95968 48.9296 11.4205 49.7987 13.9772 49.969C16.5339 50.1393 19.0883 49.6044 21.3618 48.4224C23.6353 47.2405 25.5406 45.457 26.87 43.2665C28.1993 41.0759 28.9017 38.5624 28.9004 36C28.9004 35.6625 28.8734 35.3317 28.8497 35H31.9003C32.2418 34.9966 32.5801 34.9343 32.9003 34.8157V40.1011C31.6862 40.3489 30.6075 41.0386 29.8731 42.0366C29.1388 43.0346 28.8011 44.2697 28.9256 45.5025C29.0502 46.7353 29.628 47.8779 30.5471 48.7089C31.4663 49.5398 32.6612 49.9999 33.9002 49.9999C35.1393 49.9999 36.3342 49.5398 37.2533 48.7089C38.1725 47.8779 38.7503 46.7353 38.8748 45.5025C38.9994 44.2697 38.6617 43.0346 37.9274 42.0366C37.193 41.0386 36.1142 40.3489 34.9002 40.1011V31H36.1363L38.9185 41.2017C38.9523 41.7258 39.1235 42.2318 39.4149 42.6688C39.7063 43.1058 40.1076 43.4582 40.5786 43.6908C41.0495 43.9234 41.5733 44.0278 42.0974 43.9937C42.6215 43.9595 43.1274 43.7879 43.5641 43.4961L49.5639 39.4966C49.8918 39.2781 50.1733 38.9973 50.3926 38.67C50.6118 38.3427 50.7644 37.9754 50.8417 37.5891C50.919 37.2028 50.9194 36.8051 50.8429 36.4187C50.7664 36.0322 50.6146 35.6646 50.396 35.3369ZM48.4547 37.8325L42.4543 41.8325C42.2317 41.973 41.9637 42.0225 41.7056 41.9708C41.4476 41.9191 41.2193 41.7701 41.0681 41.5547C40.921 41.3341 40.8676 41.0641 40.9196 40.8041C40.9716 40.5442 41.1248 40.3155 41.3454 40.1685L47.3462 36.1685C47.4554 36.0956 47.5779 36.045 47.7067 36.0195C47.8355 35.994 47.968 35.9942 48.0967 36.02C48.2254 36.0458 48.3478 36.0968 48.4568 36.1699C48.5658 36.243 48.6593 36.337 48.732 36.4463C48.8787 36.667 48.9319 36.9369 48.8799 37.1967C48.8279 37.4566 48.675 37.6852 48.4547 37.8325ZM32.9003 32C32.8999 32.2651 32.7945 32.5192 32.607 32.7067C32.4196 32.8942 32.1654 32.9996 31.9003 33H28.5685C28.4168 32.319 28.2139 31.6504 27.9614 31H32.9003V32ZM26.9004 36C26.9003 38.3733 26.1965 40.6933 24.8779 42.6666C23.5594 44.6399 21.6852 46.1779 19.4926 47.0861C17.2999 47.9943 14.8872 48.2319 12.5595 47.7689C10.2318 47.3058 8.09365 46.1629 6.41548 44.4847C4.73732 42.8065 3.59448 40.6684 3.13148 38.3407C2.66849 36.013 2.90614 33.6002 3.81437 31.4076C4.72261 29.2149 6.26064 27.3409 8.23397 26.0223C10.2073 24.7038 12.5273 24 14.9006 24C18.0821 24.0037 21.1322 25.2691 23.3818 27.5188C25.6314 29.7684 26.8968 32.8186 26.9004 36ZM7.29094 3.99951H3.90088C3.63566 3.99951 3.38131 3.89415 3.19377 3.70662C3.00624 3.51908 2.90088 3.26473 2.90088 2.99951C2.90088 2.7343 3.00624 2.47994 3.19377 2.29241C3.38131 2.10487 3.63566 1.99951 3.90088 1.99951H8.90076C9.12858 2.00059 9.34928 2.07901 9.5267 2.22192C9.70412 2.36484 9.82775 2.56377 9.87732 2.78613L12.3768 14.2139C12.4256 14.4367 12.5491 14.6361 12.7268 14.779C12.9045 14.922 13.1257 15 13.3538 15H29.9003C30.1655 15 30.4199 15.1054 30.6074 15.2929C30.795 15.4804 30.9003 15.7348 30.9003 16C30.9003 16.2652 30.795 16.5196 30.6074 16.7071C30.4199 16.8946 30.1655 17 29.9003 17H14.2288C14.0794 17.0001 13.9318 17.0336 13.797 17.0982C13.6622 17.1628 13.5436 17.2568 13.4499 17.3732C13.3562 17.4896 13.2897 17.6256 13.2554 17.7711C13.2212 17.9165 13.2199 18.0678 13.2518 18.2139L14.089 22.0411C13.4196 22.0739 12.7534 22.1548 12.0956 22.283L8.26801 4.78564C8.21915 4.56286 8.09564 4.36346 7.91794 4.22048C7.74024 4.07751 7.51902 3.99955 7.29094 3.99951ZM20.0668 23C18.8109 22.4979 17.4883 22.1822 16.141 22.0628L15.4709 19H29.9003C30.2418 18.9966 30.5801 18.9342 30.9003 18.8157V23H20.0668ZM27.0062 29C26.1117 27.459 24.9328 26.1016 23.5323 25H33.9003C34.4305 25.0005 34.9389 25.2114 35.3139 25.5864C35.6888 25.9613 35.8997 26.4697 35.9002 27V29H27.0062ZM33.9002 48C33.3069 48 32.7269 47.8241 32.2335 47.4944C31.7401 47.1648 31.3556 46.6963 31.1285 46.1481C30.9015 45.5999 30.8421 44.9967 30.9578 44.4148C31.0736 43.8328 31.3593 43.2983 31.7788 42.8787C32.1984 42.4591 32.7329 42.1734 33.3149 42.0576C33.8968 41.9419 34.5 42.0013 35.0482 42.2284C35.5964 42.4554 36.0649 42.8399 36.3946 43.3333C36.7242 43.8266 36.9002 44.4067 36.9002 45C36.8993 45.7954 36.583 46.5579 36.0206 47.1203C35.4582 47.6828 34.6956 47.9991 33.9002 48Z" fill="#897AE3"/>
</svg>
