<svg width="194" height="194" viewBox="0 0 194 194" fill="none" xmlns="http://www.w3.org/2000/svg">
<g filter="url(#filter0_d_1_1032)">
<circle cx="97" cy="97" r="47" fill="white"/>
<path d="M84.5 91.4374V102.562C84.5 109.479 89.3958 112.292 95.375 108.854L98.0417 107.312C98.6875 106.937 99.0833 106.25 99.0833 105.5V88.4999C99.0833 87.7499 98.6875 87.0624 98.0417 86.6874L95.375 85.1458C89.3958 81.7083 84.5 84.5208 84.5 91.4374Z" fill="#897AE3"/>
<path d="M101.167 90.3127V103.709C101.167 104.521 102.042 105.021 102.729 104.604L105.021 103.271C111 99.8336 111 94.1669 105.021 90.7294L102.729 89.3961C102.042 89.0002 101.167 89.5002 101.167 90.3127Z" fill="#897AE3"/>
</g>
<defs>
<filter id="filter0_d_1_1032" x="0" y="0" width="194" height="194" filterUnits="userSpaceOnUse" color-interpolation-filters="sRGB">
<feFlood flood-opacity="0" result="BackgroundImageFix"/>
<feColorMatrix in="SourceAlpha" type="matrix" values="0 0 0 0 0 0 0 0 0 0 0 0 0 0 0 0 0 0 127 0" result="hardAlpha"/>
<feOffset/>
<feGaussianBlur stdDeviation="25"/>
<feComposite in2="hardAlpha" operator="out"/>
<feColorMatrix type="matrix" values="0 0 0 0 0.592157 0 0 0 0 0.278431 0 0 0 0 1 0 0 0 1 0"/>
<feBlend mode="normal" in2="BackgroundImageFix" result="effect1_dropShadow_1_1032"/>
<feBlend mode="normal" in="SourceGraphic" in2="effect1_dropShadow_1_1032" result="shape"/>
</filter>
</defs>
</svg>
