<svg width="25" height="25" viewBox="0 0 25 25" fill="none" xmlns="http://www.w3.org/2000/svg">
<path d="M22.2383 11.6385C21.8983 5.83847 16.6283 1.36848 10.5583 2.36848C6.37834 3.05848 3.02835 6.44846 2.37835 10.6285C1.99835 13.0485 2.49837 15.3385 3.58837 17.2285L2.69836 20.5385C2.49836 21.2885 3.18834 21.9685 3.92834 21.7585L7.18835 20.8585C8.66835 21.7285 10.3983 22.2285 12.2483 22.2285C17.8883 22.2285 22.5683 17.2585 22.2383 11.6385ZM17.1384 15.9485C17.0484 16.1285 16.9383 16.2985 16.7983 16.4585C16.5483 16.7285 16.2783 16.9285 15.9783 17.0485C15.6783 17.1785 15.3483 17.2385 14.9983 17.2385C14.4883 17.2385 13.9383 17.1185 13.3683 16.8685C12.7883 16.6185 12.2184 16.2885 11.6484 15.8785C11.0684 15.4585 10.5284 14.9885 10.0084 14.4785C9.48835 13.9585 9.02833 13.4084 8.60833 12.8384C8.19833 12.2684 7.86835 11.6985 7.62835 11.1285C7.38835 10.5585 7.26836 10.0085 7.26836 9.48847C7.26836 9.14847 7.32836 8.81847 7.44836 8.51847C7.56836 8.20847 7.75837 7.92847 8.02837 7.67847C8.34837 7.35847 8.69835 7.20847 9.06835 7.20847C9.20835 7.20847 9.34832 7.23847 9.47832 7.29847C9.60833 7.35847 9.72835 7.44847 9.81835 7.57847L10.9783 9.21845C11.0683 9.34845 11.1383 9.45846 11.1783 9.56846C11.2283 9.67846 11.2483 9.77846 11.2483 9.87846C11.2483 9.99846 11.2084 10.1185 11.1384 10.2385C11.0684 10.3585 10.9783 10.4785 10.8583 10.5985L10.4783 10.9985C10.4183 11.0585 10.3984 11.1185 10.3984 11.1985C10.3984 11.2385 10.4083 11.2785 10.4183 11.3185C10.4383 11.3585 10.4484 11.3885 10.4584 11.4185C10.5484 11.5885 10.7083 11.7984 10.9283 12.0584C11.1583 12.3184 11.3984 12.5885 11.6584 12.8485C11.9284 13.1185 12.1884 13.3584 12.4584 13.5884C12.7184 13.8084 12.9383 13.9585 13.1083 14.0485C13.1383 14.0585 13.1684 14.0784 13.1984 14.0884C13.2384 14.1084 13.2784 14.1085 13.3284 14.1085C13.4184 14.1085 13.4784 14.0785 13.5384 14.0185L13.9183 13.6385C14.0483 13.5085 14.1684 13.4185 14.2784 13.3585C14.3984 13.2885 14.5084 13.2485 14.6384 13.2485C14.7384 13.2485 14.8384 13.2685 14.9484 13.3185C15.0584 13.3685 15.1783 13.4285 15.2983 13.5185L16.9584 14.6985C17.0884 14.7885 17.1783 14.8985 17.2383 15.0185C17.2883 15.1485 17.3184 15.2685 17.3184 15.4085C17.2584 15.5785 17.2184 15.7685 17.1384 15.9485Z" fill="white"/>
</svg>
